<?xml version="1.0" ?><svg enable-background="new 0 0 512 512" id="Layer_1" version="1.1" viewBox="0 0 512 512" xml:space="preserve" xmlns="http://www.w3.org/2000/svg" xmlns:xlink="http://www.w3.org/1999/xlink"><g><g><linearGradient gradientUnits="userSpaceOnUse" id="SVGID_1_" x1="-0.0000027" x2="512" y1="256" y2="256"><stop offset="0" style="stop-color:#8DC63F"/><stop offset="1" style="stop-color:#76B83F"/></linearGradient><circle cx="256" cy="256" fill="url(#SVGID_1_)" r="256"/><linearGradient gradientUnits="userSpaceOnUse" id="SVGID_2_" x1="42.6666641" x2="469.3333435" y1="256.0005188" y2="256.0005188"><stop offset="0" style="stop-color:#76B83F"/><stop offset="1" style="stop-color:#8DC63F"/></linearGradient><path d="M256,469.3338623c-117.6314697,0-213.3333435-95.7018738-213.3333435-213.3333435    c0-117.6309204,95.7018661-213.333313,213.3333435-213.333313c117.6357422,0,213.3333435,95.7024002,213.3333435,213.333313    C469.3333435,373.6319885,373.6357422,469.3338623,256,469.3338623z" fill="url(#SVGID_2_)"/></g><g><polygon opacity="0.3" points="259.8346558,182.7498627 229,152.7498627 144,152.7498627 144,213.9839935 384,213.9839935     384,182.7498627   "/><path d="M144,299v76.2501221h120h120V299v-75.0160065H144V299z M202.3135986,298.1199951l36.1333313,36.1349487    l88.7941284-88.7914734l7.0698853,7.0703888l-95.8640137,95.8624115l-43.2032013-43.2063904L202.3135986,298.1199951z" opacity="0.3"/></g><g><polygon fill="#FFFFFF" points="251.834671,174.7498627 221,144.7498627 136,144.7498627 136,205.9839935 376,205.9839935     376,174.7498627   "/><path d="M136,291v76.2501221h120h120V291v-75.0160065H136V291z M194.3135986,290.1199951l36.1333313,36.1349487    l88.7941284-88.7914734l7.0698853,7.0703888l-95.8640137,95.8624115l-43.2032013-43.2063904L194.3135986,290.1199951z" fill="#FFFFFF"/></g></g></svg>